<svg fill="none" height="500" viewBox="0 0 500 500" width="500" xmlns="http://www.w3.org/2000/svg" xmlns:xlink="http://www.w3.org/1999/xlink"><linearGradient id="a" gradientUnits="userSpaceOnUse" x1="234.825" x2="234.825" y1="197.257" y2="412.655"><stop offset="0" stop-color="#1a9dc7"/><stop offset="1" stop-color="#0a5e79"/></linearGradient><ellipse cx="250.19" cy="424.777" fill="#f2c47f" rx="177" ry="10" transform="matrix(.99970767 -.02417778 .02417778 .99970767 -10.19703 6.173213)"/><path d="m350.966 308.244c5.225-11.913 8.202-23.419 8.817-32.372.307-4.481.019-8.265-.836-11.124-.857-2.863-2.236-4.663-4.017-5.445-1.781-.781-4.039-.576-6.726.734-2.682 1.307-5.661 3.658-8.75 6.919-6.169 6.516-12.618 16.5-17.842 28.413-5.225 11.913-8.202 23.419-8.817 32.372-.307 4.481-.019 8.265.836 11.124.856 2.863 2.236 4.663 4.017 5.444 1.781.782 4.039.577 6.726-.733 2.682-1.307 5.661-3.658 8.749-6.919 6.17-6.516 12.619-16.5 17.843-28.413z" fill="#1a9dc7" stroke="#000" stroke-width="2"/><path d="m135.42 344.017c-7.854-9.458-13.48-19.196-16.246-27.266-1.384-4.038-2.034-7.607-1.923-10.488.111-2.882.973-4.958 2.487-6.215 1.513-1.257 3.712-1.723 6.565-1.303 2.852.42 6.241 1.714 9.957 3.816 7.425 4.201 15.964 11.519 23.819 20.976 7.855 9.458 13.48 19.196 16.246 27.266 1.384 4.038 2.034 7.607 1.923 10.488-.11 2.882-.973 4.958-2.486 6.215-1.514 1.257-3.713 1.723-6.566 1.303-2.852-.42-6.241-1.714-9.957-3.816-7.425-4.201-15.964-11.519-23.819-20.976z" fill="#1a9dc7" stroke="#000" stroke-width="2"/><path d="m258.653 217.186-69 12.5c4.368-6.251 1.679-55.518 12-71 5-7.5 14.5-7.5 18.5-6 15.59 5.847 38.745 51.404 38.5 64.5z" fill="#00485f" stroke="#030303" stroke-width="2"/><g stroke="#000"><path d="m310.624 400.095c-9.62-1.007-18.435-.597-24.901.858-3.238.728-5.844 1.709-7.663 2.874-1.827 1.169-2.753 2.449-2.89 3.756-.559 5.342.055 9.041 1.491 11.617 1.423 2.552 3.713 4.11 6.755 5.05 3.065.946 6.844 1.249 11.156 1.306 2.398.032 4.904-.011 7.52-.056 2.12-.036 4.313-.074 6.58-.074 2.388 0 4.693.028 6.908.054 7.132.086 13.323.16 18.304-.737 3.24-.583 5.883-1.567 7.892-3.171 1.994-1.591 3.422-3.84 4.159-7.07.839-3.673.238-6.154-1.26-7.918-1.537-1.811-4.133-3.01-7.589-3.83-3.441-.816-7.606-1.229-12.159-1.563-1.301-.096-2.633-.185-3.987-.275-3.362-.225-6.855-.459-10.316-.821z" fill="#075169" stroke-width="1.51989"/><path d="m345.783 415.124c-4.699-.764-14.599-2.117-16.607-1.411" stroke-width="1.51989"/><path d="m339.46 422.759c-2.801-1.31-8.78-3.976-10.288-4.159" stroke-width="1.51989"/><path d="m199.077 400.095c9.62-1.007 18.435-.597 24.902.858 3.237.728 5.843 1.709 7.662 2.874 1.827 1.169 2.753 2.449 2.89 3.756.559 5.342-.055 9.041-1.491 11.617-1.423 2.552-3.713 4.11-6.755 5.05-3.065.946-6.844 1.249-11.156 1.306-2.398.032-4.904-.011-7.52-.056-2.12-.036-4.313-.074-6.579-.074-2.389 0-4.694.028-6.909.054-7.132.086-13.323.16-18.303-.737-3.241-.583-5.884-1.567-7.893-3.171-1.994-1.591-3.422-3.84-4.159-7.07-.839-3.673-.237-6.154 1.26-7.918 1.537-1.811 4.134-3.01 7.589-3.83 3.441-.816 7.606-1.229 12.159-1.563 1.301-.096 2.634-.185 3.987-.275 3.362-.225 6.855-.459 10.316-.821z" fill="#075169" stroke-width="1.51989"/><path d="m163.918 415.124c4.699-.764 14.6-2.117 16.607-1.411" stroke-width="1.51989"/><path d="m170.241 422.759c2.801-1.31 8.78-3.976 10.289-4.159" stroke-width="1.51989"/><path d="m321.154 202.686c-28-19.5-179.919 18.268-185.501 38.5-16 58 48.567 179.972 122 171 110.5-13.5 76.592-200.383 63.501-209.5z" fill="url(#a)" stroke-width="2"/><path d="m312.653 280.686c-33.6 2-55.334 5.5-62 7 0-27 11.1-60.5 29.5-60.5s32.5 35.333 32.5 53.5z" fill="#fff" stroke-width="2"/><path d="m228.372 295.005c-32.855 7.318-53.755 14.23-60.098 16.771-4.294-26.656 1.337-61.495 19.503-64.421 18.166-2.927 37.706 29.715 40.595 47.65z" fill="#fff" stroke-width="2"/><path d="m198.153 340.686c14.166 9 57.5-.4 95.5-38-7.167 52.333-40.7 147.6-95.5 38z" fill="#d0f4ff" stroke-width="2"/><path d="m186.653 305.686 41-10.5c1.6-7.2-9.667-24.667-15.5-32.5-6.667.167-21.3 3.4-26.5 15s-1.5 23.5 1 28z" fill="#000"/><path d="m258.653 250.186c-4.4 2-6.834 25.167-7.5 36.5l49.5-5.5c-1-9.5-2.5-14.5-4-20.5-5.118-20.471-32.5-13-38-10.5z" fill="#0b0b0b"/><path d="m218.153 344.186h-9.5c0 4.4 7 7.833 10.5 9z" fill="#fff" stroke-width="2"/><path d="m229.215 342.458-9.325 1.813c.84 4.32 8.367 6.353 12.025 6.83z" fill="#fff" stroke-width="2"/><path d="m239.978 339.377-9.325 1.814c.84 4.319 8.367 6.353 12.025 6.829z" fill="#fff" stroke-width="2"/><path d="m242.599 337.253 8.991-3.067c1.421 4.164-4.096 9.674-7.032 11.908z" fill="#fff" stroke-width="2"/><path d="m253.599 332.253 8.554-4.567c1.42 4.164-3.659 11.174-6.595 13.408z" fill="#fff" stroke-width="2"/><path d="m264.103 326.753 8.554-4.567c1.42 4.164-3.659 11.174-6.595 13.408z" fill="#fff" stroke-width="2"/><path d="m274.103 319.753 8.05-5.567c1.42 4.164-3.155 12.174-6.091 14.408z" fill="#fff" stroke-width="2"/><path d="m283.461 311.753 6.192-4.067c1.42 4.164-1.297 10.674-4.233 12.908z" fill="#fff" stroke-width="2"/><path d="m222.653 368.186c-3.6 4.4-2.5 7.167-1.5 8l4 4z" fill="#fff" stroke-width="2"/><path d="m229.153 371.186c-1.6 1.2-2.334 7.167-2.5 10 2 1.667 5.9 4.8 5.5 4s-2.167-9.667-3-14z" fill="#fff" stroke-width="2"/></g><path d="m236.653 376.186c-.834 2.834-2.6 8.9-3 10.5l5.5 2.5z" fill="#fff"/><path d="m243.153 378.686-1.5 11 7 1z" fill="#fff"/><path d="m250.653 378.686v11l8-3.5z" fill="#fff"/><path d="m257.153 374.186 3 10.5 5.5-5c.166-.5.3-1.8-.5-3s-5.667-2.166-8-2.5z" fill="#fff"/><path d="m263.153 368.686 5 6.5c1.333-1.5 4-4.8 4-6s-6-.833-9-.5z" fill="#fff"/><path d="m236.653 376.186c-.834 2.834-2.6 8.9-3 10.5l5.5 2.5z" stroke="#000" stroke-width="2"/><path d="m243.153 378.686-1.5 11 7 1z" stroke="#000" stroke-width="2"/><path d="m250.653 378.686v11l8-3.5z" stroke="#000" stroke-width="2"/><path d="m257.153 374.186 3 10.5 5.5-5c.166-.5.3-1.8-.5-3s-5.667-2.166-8-2.5z" stroke="#000" stroke-width="2"/><path d="m263.153 368.686 5 6.5c1.333-1.5 4-4.8 4-6s-6-.833-9-.5z" stroke="#000" stroke-width="2"/><path d="m353.821 291.843c-4.514 16.179-6.222 6.225-9.126 5.415-2.904-.811-.551.77 3.964-15.41 4.515-16.179 4.045-14.282 5.998-13.738 2.904.811 3.679 7.554-.836 23.733z" fill="#207a96"/><path d="m245.153 289.686c-.8.8-7.334 1.667-10.5 2 0-1 .4-3.3 2-4.5 2-1.5 6-1 7.5-1.5s2 3 1 4z" fill="#136079"/><path d="m244.992 282.202c-1.017.794-9.316 1.653-13.339 1.984 0-.992.508-3.273 2.54-4.464 2.541-1.488 7.623-.992 9.528-1.488 1.906-.496 2.541 2.976 1.271 3.968z" fill="#136079"/><path d="m245.934 197.144c-1.523 1.262-14.465 3.315-20.746 4.184-.088-1.456.505-4.854 3.587-6.795 3.853-2.426 11.867-2.182 14.812-3.092s4.251 4.126 2.347 5.703z" fill="#13718f"/><path d="m240.934 188.144c-1.523 1.262-14.465 3.315-20.746 4.184-.088-1.456.505-4.854 3.587-6.795 3.853-2.426 11.867-2.182 14.812-3.092s4.251 4.126 2.347 5.703z" fill="#13718f"/><path d="m234.934 178.144c-1.523 1.262-14.465 3.315-20.746 4.184-.088-1.456.505-4.854 3.587-6.795 3.853-2.426 11.867-2.182 14.812-3.092s4.251 4.126 2.347 5.703z" fill="#13718f"/><path d="m228.016 168.281c-1.245 1.071-10.761 1.58-15.363 1.7.116-1.454.959-4.752 3.404-6.313 3.057-1.951 8.763-.764 10.983-1.318 2.219-.555 2.533 4.592.976 5.931z" fill="#13718f"/><path d="m219.951 159.053c-.936 1.096-7.922 1.806-11.298 2.024.116-1.454.804-4.764 2.63-6.375 2.282-2.012 5.604-.76 7.603 0 1.632.621 2.235 2.981 1.065 4.351z" fill="#13718f"/><path d="m244.85 274.202c-1.234.794-11.312 1.653-16.197 1.984 0-.992.617-3.273 3.085-4.464 3.085-1.488 9.256-.992 11.57-1.488 2.313-.496 3.085 2.976 1.542 3.968z" fill="#136079"/><path d="m247.425 266.202c-1.887.794-17.301 1.653-24.772 1.984 0-.992.943-3.273 4.718-4.464 4.719-1.488 14.156-.992 17.695-1.488s4.719 2.976 2.359 3.968z" fill="#136079"/></svg>